
<svg id="Layer_1" xmlns="http://www.w3.org/2000/svg" version="1.1" viewBox="0 0 256 256">
  <path fill="currentColor" d="M188.2,103.09h-21.99l-14.21,41.66c-15.01-1.45-28.25-6.13-39.17-13.78,12.45-13.87,20.97-31.96,24.44-53.5h24.8v-16.41h-53.21v-18.11h-16.41v18.11h-53.2v16.41h81.31c-3.19,17.21-10.03,31.6-19.93,42.62-7.44-8.29-13.21-18.45-16.94-30.38l-15.66,4.89c4.47,14.31,11.35,26.52,20.21,36.49-13.24,9.21-29.83,14.18-48.99,14.18v16.41c23.96,0,44.78-6.88,61.16-19.28,12.79,9.77,28.38,15.98,46.16,18.26l-17.33,50.79h22.31l7.01-23.11h36.97l7.17,23.11h22.31l-36.81-108.37ZM163.97,170.82l13.07-42.71h.64l12.59,42.71h-26.29Z"/>
</svg>